<svg version="1.1" class="clearos-svg clearfoundation app-vendor-clearfoundation app-free app-category-network app-sub-category-bandwidth-control" viewBox="0 0 400 400" preserveAspectRatio="xMinYMin" xmlns="http://www.w3.org/2000/svg" xmlns:xlink= "http://www.w3.org/1999/xlink">
<path fill="#AA0707" d="M91.666,184.647"/>
<path fill="#AA0707" d="M123.245,247.805"/>
<path fill="#AA0707" d="M91.666,184.647"/>
<path fill="#AA0707" d="M123.245,247.805"/>
<g>
	<path fill="#686868" d="M300.625,27.902c49.823,5.835,82.743,15.905,82.743,27.354c0,17.078-73.292,31.112-166.817,32.602
		c-5.453,0.08-10.965,0.143-16.547,0.143c-4.377,0-14.89-0.032-19.188-0.095c-95.222-1.174-164.2-15.35-164.2-32.65
		c0-11.449,32.904-21.518,82.79-27.354c-58.1,5.233-97.077,14.874-97.077,25.942c0,73.608,170.306,318.221,170.306,318.221
		c4.599,0.063,46.041,0.031,51.908-0.063c0,0,173.128-258.853,173.128-318.158C397.671,42.81,358.693,33.167,300.625,27.902z"/>
</g>
</svg>
